<?xml version="1.0" ?><!DOCTYPE svg  PUBLIC '-//W3C//DTD SVG 1.1//EN'  'http://www.w3.org/Graphics/SVG/1.1/DTD/svg11.dtd'><svg enable-background="new 0 0 24 24" height="24px" id="Layer_1" version="1.1" viewBox="0 0 24 24" width="24px" xml:space="preserve" xmlns="http://www.w3.org/2000/svg" xmlns:xlink="http://www.w3.org/1999/xlink"><g><g><g><g><g><path d="M12,23.5c-0.3,0-0.7-0.1-1-0.3l-4.6-2.7c-0.5-0.3-0.9-0.8-0.9-1.4L4,9.1C4,8.5,4.1,8,4.5,7.5c0.4-0.4,0.9-0.7,1.5-0.7       h12.1c0.6,0,1.1,0.2,1.4,0.7C19.9,8,20,8.5,20,9.1l-1.4,10.1c-0.1,0.6-0.4,1.1-0.9,1.4L13,23.2C12.7,23.4,12.3,23.5,12,23.5z        M5.9,7.9C5.7,7.9,5.4,8,5.2,8.2C5.1,8.4,5,8.7,5,8.9L6.4,19c0,0.3,0.2,0.5,0.5,0.7l4.6,2.7c0.3,0.2,0.6,0.2,0.9,0l4.6-2.7       c0.2-0.1,0.4-0.4,0.5-0.7L19,8.9c0-0.3,0-0.5-0.2-0.7c-0.2-0.2-0.4-0.3-0.7-0.3H5.9z"/></g></g><g><path d="M8.5,14.7c-0.2,0-0.5-0.2-0.5-0.4l-0.5-3.6c0-0.1,0-0.3,0.1-0.4c0.1-0.1,0.2-0.2,0.4-0.2H16c0.3,0,0.5,0.2,0.5,0.5      s-0.2,0.5-0.5,0.5H8.5l0.4,3C9,14.4,8.8,14.6,8.5,14.7C8.5,14.7,8.5,14.7,8.5,14.7z"/></g><g><path d="M12,19.6c-0.1,0-0.2,0-0.2-0.1l-3.1-1.8c-0.1-0.1-0.2-0.2-0.2-0.4l-0.1-1c0-0.3,0.2-0.5,0.4-0.6c0.3,0,0.5,0.2,0.6,0.4      L9.4,17l2.6,1.5l2.6-1.5l0.4-2.9c0-0.3,0.3-0.5,0.6-0.4c0.3,0,0.5,0.3,0.4,0.6l-0.4,3.1c0,0.2-0.1,0.3-0.2,0.4l-3.1,1.8      C12.2,19.6,12.1,19.6,12,19.6z"/></g></g><g><path d="M15.5,14.7H8.5c-0.3,0-0.5-0.2-0.5-0.5s0.2-0.5,0.5-0.5h7.1c0.3,0,0.5,0.2,0.5,0.5S15.8,14.7,15.5,14.7z"/></g></g><g><g><g><path d="M7.2,3.7H5.1c-0.3,0-0.5-0.2-0.5-0.5V1c0-0.3,0.2-0.5,0.5-0.5S5.6,0.7,5.6,1v1.7h1.2V1c0-0.3,0.2-0.5,0.5-0.5      S7.7,0.7,7.7,1v2.2C7.7,3.5,7.5,3.7,7.2,3.7z"/></g><g><path d="M7.2,5.9C7,5.9,6.7,5.6,6.7,5.4V3.7H5.6v1.7c0,0.3-0.2,0.5-0.5,0.5S4.6,5.6,4.6,5.4V3.2c0-0.3,0.2-0.5,0.5-0.5h2.2      c0.3,0,0.5,0.2,0.5,0.5v2.2C7.7,5.6,7.5,5.9,7.2,5.9z"/></g></g><g><g><path d="M10.8,3.2" fill="none" stroke="#000000" stroke-linecap="round" stroke-linejoin="round" stroke-miterlimit="10"/></g><g><path d="M10.8,1.5H8.6C8.3,1.5,8.1,1.3,8.1,1s0.2-0.5,0.5-0.5h2.2c0.3,0,0.5,0.2,0.5,0.5S11.1,1.5,10.8,1.5z"/></g><g><path d="M9.7,3.7c-0.3,0-0.5-0.2-0.5-0.5V1c0-0.3,0.2-0.5,0.5-0.5s0.5,0.2,0.5,0.5v2.2C10.2,3.5,10,3.7,9.7,3.7z"/></g><g><path d="M9.7,5.9c-0.3,0-0.5-0.2-0.5-0.5V3.2c0-0.3,0.2-0.5,0.5-0.5s0.5,0.2,0.5,0.5v2.2C10.2,5.6,10,5.9,9.7,5.9z"/></g></g><g><g><path d="M18.9,3.2" fill="none" stroke="#000000" stroke-linecap="round" stroke-linejoin="round" stroke-miterlimit="10"/></g><g><path d="M16.8,3.7c-0.3,0-0.5-0.2-0.5-0.5V1c0-0.3,0.2-0.5,0.5-0.5s0.5,0.2,0.5,0.5v2.2C17.3,3.5,17,3.7,16.8,3.7z"/></g><g><path d="M18.9,5.9h-2.2c-0.3,0-0.5-0.2-0.5-0.5V3.2c0-0.3,0.2-0.5,0.5-0.5s0.5,0.2,0.5,0.5v1.7h1.7c0.3,0,0.5,0.2,0.5,0.5      S19.2,5.9,18.9,5.9z"/></g></g><g><g><g><path d="M14.3,3.2" fill="none" stroke="#000000" stroke-linecap="round" stroke-linejoin="round" stroke-miterlimit="10"/></g><g><path d="M12.1,3.7c-0.3,0-0.5-0.2-0.5-0.5V1c0-0.3,0.2-0.5,0.5-0.5h4.6c0.3,0,0.5,0.2,0.5,0.5S17,1.5,16.8,1.5h-4.1v1.7       C12.6,3.5,12.4,3.7,12.1,3.7z"/></g><g><path d="M14.3,3.2" fill="none" stroke="#000000" stroke-linecap="round" stroke-linejoin="round" stroke-miterlimit="10"/></g><g><path d="M12.1,5.9c-0.3,0-0.5-0.2-0.5-0.5V3.2c0-0.3,0.2-0.5,0.5-0.5s0.5,0.2,0.5,0.5v2.2C12.6,5.6,12.4,5.9,12.1,5.9z"/></g></g><g><g><path d="M13.2,3.2" fill="none" stroke="#000000" stroke-linecap="round" stroke-linejoin="round" stroke-miterlimit="10"/></g></g><g><path d="M14.4,3.7c-0.3,0-0.5-0.2-0.5-0.5V1c0-0.3,0.2-0.5,0.5-0.5s0.5,0.2,0.5,0.5v2.2C14.9,3.5,14.7,3.7,14.4,3.7z"/></g><g><path d="M14.4,5.9c-0.3,0-0.5-0.2-0.5-0.5V3.2c0-0.3,0.2-0.5,0.5-0.5s0.5,0.2,0.5,0.5v2.2C14.9,5.6,14.7,5.9,14.4,5.9z"/></g></g></g></g></svg>